Poster: 
http://bigfanboy.com/wp/wp-content/uploads/2012/06/Madagascar-3-Europes-Most-Wanted-Poster-004.jpg


Genre	: Animation, Adventure, Comedy
Actors	: Ben Stiller, Jada Pinkett Smith, Chris Rock

Plot	:
Alex, Marty, Gloria and Melman are still fighting to get home to their beloved Big Apple. Their journey takes them through Europe where they find the perfect cover: a traveling circus, which they reinvent - Madagascar style.


Video
ID: 0
Format: MPEG-4 Visual
Format profile: Advanced Simple@L5
Format settings, BVOP: 2
Format settings, QPel: No
Format settings, GMC: No warppoints
Format settings, Matrix: Default (H.263)
Muxing mode: Packed bitstream
Codec ID: XVID
Codec ID/Hint: XviD
Duration: 1h 21mn
Bit rate: 2 279 Kbps
Width: 720 pixels
Height: 400 pixels
Display aspect ratio: 16:9
Frame rate: 25.000 fps
Color space: YUV
Chroma subsampling: 4:2:0
Bit depth: 8 bits
Scan type: Progressive
Compression mode: Lossy
Bits/(Pixel*Frame): 0.317
Stream size: 1.29 GiB (94%)
Writing library: XviD 1.2.1 (UTC 2008-12-04)

Audio
ID: 1
Format: MPEG Audio
Format version: Version 1
Format profile: Layer 3
Mode: Joint stereo
Mode extension: MS Stereo
Codec ID: 55
Codec ID/Hint: MP3
Duration: 1h 21mn
Bit rate mode: Constant
Bit rate: 128 Kbps
Channel(s): 2 channels
Sampling rate: 44.1 KHz
Compression mode: Lossy
Stream size: 74.3 MiB (5%)
Alignment: Split accross interleaves
Interleave, duration: 40 ms (1.00 video frame)
Writing library: LAME3.98r


SCREENS: 
http://www.pixentral.com/pics/1dlfxFGarwsqembmEj41SitmkQJbD0.jpg